<?xml version="1.0" encoding="UTF-8"?>
<!--
  - Copyright 2024 David TakaÄ
  -
  - This file is part of Bura.
  -
  - Bura is free software: you can redistribute it and/or modify it under the terms of the GNU General Public License as published by the Free Software Foundation, either version 3 of the License, or (at your option) any later version.
  -
  - Bura is distributed in the hope that it will be useful, but WITHOUT ANY WARRANTY; without even the implied warranty of MERCHANTABILITY or FITNESS FOR A PARTICULAR PURPOSE. See the GNU General Public License for more details.
  -
  - You should have received a copy of the GNU General Public License along with Bura. If not, see <https://www.gnu.org/licenses/>.
  -->
<!-- Created with Inkscape (http://www.inkscape.org/) -->
<svg id="svg1" width="24" height="24" version="1.1" viewBox="0 0 24 24" xml:space="preserve" xmlns="http://www.w3.org/2000/svg"><g id="layer1"><g id="g2" transform="matrix(.74997 0 0 .70067 2.998 3.5793)" fill="#bdbdbd" stroke="#bdbdbd" stroke-linecap="round" stroke-linejoin="round" stroke-width="2.0015"><g id="path1-7"><g id="g1" transform="translate(.026043 -3.2112)"><g id="g4" transform="translate(0 .16275)" fill="#e0e0e0" stroke="none"><path id="path3" d="m11.102 3.4861a7.4857 8.0123 0 0 0-7.4225 7.0884 4.2158 4.4869 0 0 0-3.7031 4.4494 4.2158 4.4869 0 0 0 4.2154 4.4869h14.396a5.3897 5.7689 0 0 0 5.3897-5.7689 5.3897 5.7689 0 0 0-5.3897-5.7689 5.3897 5.7689 0 0 0-0.73921 0.055085 7.4857 8.0123 0 0 0-6.7465-4.542z"/><g id="g3" transform="translate(-.026043 -1.0704)"><rect id="rect1" x="3.3362" y="22.722" width="17.334" height="1.4272" ry=".66669"/><rect id="rect1-9" x="3.3362" y="26.29" width="17.334" height="1.4272" ry=".66669"/></g></g></g></g></g></g></svg>
