<?xml version="1.0" encoding="UTF-8"?>
<!--
  - Copyright 2024 David TakaÄ
  -
  - This file is part of Bura.
  -
  - Bura is free software: you can redistribute it and/or modify it under the terms of the GNU General Public License as published by the Free Software Foundation, either version 3 of the License, or (at your option) any later version.
  -
  - Bura is distributed in the hope that it will be useful, but WITHOUT ANY WARRANTY; without even the implied warranty of MERCHANTABILITY or FITNESS FOR A PARTICULAR PURPOSE. See the GNU General Public License for more details.
  -
  - You should have received a copy of the GNU General Public License along with Bura. If not, see <https://www.gnu.org/licenses/>.
  -->
<!-- Created with Inkscape (http://www.inkscape.org/) -->
<svg id="svg1" width="24" height="24" version="1.1" viewBox="0 0 24 24" xml:space="preserve" xmlns="http://www.w3.org/2000/svg"><g id="layer1"><g id="g2" transform="matrix(.5 0 0 .5 10 5)" fill="none" stroke="currentColor" stroke-linecap="round" stroke-linejoin="round" stroke-width="2"><g id="g3" fill="#ffeb3b"><g id="circle1"><path id="path4" d="m12 6c-3.3019 0-6 2.6981-6 6 0 3.3019 2.6981 6 6 6 3.3019 0 6-2.6981 6-6 0-3.3019-2.6981-6-6-6z" color="#000000" stroke="none" style="-inkscape-stroke:none"/></g><line id="line1" x1="12" x2="12" y1="1" y2="3" fill="#ffeb3b" stroke="#ffeb3b"/><line id="line3" x1="4.22" x2="5.64" y1="4.22" y2="5.64" fill="#ffeb3b" stroke="#ffeb3b"/><line id="line4" x1="18.36" x2="19.78" y1="18.36" y2="19.78" fill="#ffeb3b" stroke="#ffeb3b"/><line id="line6" x1="21" x2="23" y1="12" y2="12" fill="#ffeb3b" stroke="#ffeb3b"/><line id="line8" x1="18.36" x2="19.78" y1="5.64" y2="4.22" fill="#ffeb3b" stroke="#ffeb3b"/></g></g><path id="path3" d="m9.4168 9.0195a4.9903 4.9903 0 0 0-4.9481 4.4148 2.8105 2.7945 0 0 0-2.4686 2.7712 2.8105 2.7945 0 0 0 2.8101 2.7945h9.5969a3.593 3.593 0 0 0 3.593-3.593 3.593 3.593 0 0 0-3.593-3.593 3.593 3.593 0 0 0-0.49279 0.03431 4.9903 4.9903 0 0 0-4.4975-2.8289z" fill="#e0e0e0"/></g></svg>
