<?xml version="1.0" encoding="UTF-8"?>
<!--
  - Copyright 2024 David TakaÄ
  -
  - This file is part of Bura.
  -
  - Bura is free software: you can redistribute it and/or modify it under the terms of the GNU General Public License as published by the Free Software Foundation, either version 3 of the License, or (at your option) any later version.
  -
  - Bura is distributed in the hope that it will be useful, but WITHOUT ANY WARRANTY; without even the implied warranty of MERCHANTABILITY or FITNESS FOR A PARTICULAR PURPOSE. See the GNU General Public License for more details.
  -
  - You should have received a copy of the GNU General Public License along with Bura. If not, see <https://www.gnu.org/licenses/>.
  -->
<!-- Created with Inkscape (http://www.inkscape.org/) -->
<svg id="svg1" width="24" height="24" version="1.1" viewBox="0 0 24 24" xml:space="preserve" xmlns="http://www.w3.org/2000/svg"><g id="layer1"><g id="g2" transform="matrix(.74997 0 0 .70067 2.998 3.5793)" fill="#bdbdbd" stroke="#bdbdbd" stroke-linecap="round" stroke-linejoin="round" stroke-width="2.0015"><g id="path1-7"><g id="g3" transform="translate(.95114)" fill="#64b5f6"><g id="g4" transform="translate(0 -.86937)"><g id="g1" transform="translate(0 1.4308)"><g id="g6"><g id="g7" transform="translate(0 -.25376)"><g id="g8" transform="translate(0 .10304)"><g id="g9" transform="translate(0 .68592)" stroke="none"><path id="path3" d="m10.177-1.563a7.4857 8.0123 0 0 0-7.4225 7.0884 4.2158 4.4869 0 0 0-3.7031 4.4493 4.2158 4.4869 0 0 0 4.2154 4.4869h14.396a5.3897 5.7689 0 0 0 5.3897-5.7689 5.3897 5.7689 0 0 0-5.3897-5.7689 5.3897 5.7689 0 0 0-0.73921 0.055085 7.4857 8.0123 0 0 0-6.7465-4.542z" fill="#e0e0e0"/><g id="g5" transform="translate(-.0040508 -.96298)" fill="#64b5f6"><path id="rect2" transform="matrix(.93969 .36608 -.31954 .93969 5.1029 -4.6604)" x="14.669932" y="17.726797" width="1.3333844" height="4.2815933" ry="0.6666922" d="m15.337 17.727c0.36935 0 0.66669 0.29734 0.66669 0.66669v2.9482c0 0.36935-0.29734 0.66669-0.66669 0.66669-0.36935 0-0.66669-0.29734-0.66669-0.66669v-2.9482c0-0.36935 0.29734-0.66669 0.66669-0.66669z"/><path id="rect2-6" transform="matrix(.93969 .36608 -.31954 .93969 -3.3535 -4.6604)" x="14.669932" y="17.726797" width="1.3333844" height="4.2815933" ry="0.6666922" d="m15.337 17.727c0.36935 0 0.66669 0.29734 0.66669 0.66669v2.9482c0 0.36935-0.29734 0.66669-0.66669 0.66669-0.36935 0-0.66669-0.29734-0.66669-0.66669v-2.9482c0-0.36935 0.29734-0.66669 0.66669-0.66669z"/><rect id="rect3" transform="matrix(.93179 .363 -.32194 .94676 0 0)" x="14.122" y="12.932" width="1.3447" height="7.0827" ry=".66172"/><rect id="rect3-9" transform="matrix(.93179 .363 -.32194 .94676 0 0)" x="22.143" y="9.8569" width="1.3447" height="7.0827" ry=".66172"/></g></g></g></g></g></g></g></g></g></g></g></svg>
