<?xml version="1.0" encoding="UTF-8"?>
<!--
  - Copyright 2024 David TakaÄ
  -
  - This file is part of Bura.
  -
  - Bura is free software: you can redistribute it and/or modify it under the terms of the GNU General Public License as published by the Free Software Foundation, either version 3 of the License, or (at your option) any later version.
  -
  - Bura is distributed in the hope that it will be useful, but WITHOUT ANY WARRANTY; without even the implied warranty of MERCHANTABILITY or FITNESS FOR A PARTICULAR PURPOSE. See the GNU General Public License for more details.
  -
  - You should have received a copy of the GNU General Public License along with Bura. If not, see <https://www.gnu.org/licenses/>.
  -->
<!-- Created with Inkscape (http://www.inkscape.org/) -->
<svg id="svg1" width="24" height="24" version="1.1" viewBox="0 0 24 24" xml:space="preserve" xmlns="http://www.w3.org/2000/svg"><g id="layer1"><g id="g4" transform="translate(0 -.1778)"><g id="g1" transform="translate(0,-3)"><g id="g2" transform="matrix(.5 0 0 .5 10 5)" fill="none" stroke="currentColor" stroke-linecap="round" stroke-linejoin="round" stroke-width="2"><g id="g3" fill="#F57F17"><g id="circle1"><path id="path4" d="m12 6c-1.9128 0-3.6223 0.90479-4.7227 2.3086 0.80658 0.71933 1.5333 1.5388 2.1562 2.4453 3.177 0.20502 5.9797 1.8602 7.7188 4.3086 0.53695-0.89801 0.84766-1.945 0.84766-3.0625 0-3.3019-2.6981-6-6-6zm-3.1875 10.629c-0.19076 3.2e-4 -0.38137 0.01276-0.57031 0.03906 1.013 0.81744 2.2949 1.3158 3.6875 1.332-0.7612-0.8444-1.8646-1.3711-3.1172-1.3711z" color="#000000" stroke="none" style="-inkscape-stroke:none"/></g><line id="line1" x1="12" x2="12" y1="1" y2="3" fill="#F57F17" stroke="#F57F17"/><line id="line3" x1="4.22" x2="5.64" y1="4.22" y2="5.64" fill="#F57F17" stroke="#F57F17"/><line id="line4" x1="18.36" x2="19.78" y1="18.36" y2="19.78" fill="#F57F17" stroke="#F57F17"/><line id="line6" x1="21" x2="23" y1="12" y2="12" fill="#F57F17" stroke="#F57F17"/><line id="line8" x1="18.36" x2="19.78" y1="5.64" y2="4.22" fill="#F57F17" stroke="#F57F17"/></g></g><g id="path3"><path id="path1" d="m9.4168 9.0195a4.9903 4.9903 0 0 0-4.9481 4.4148 2.8105 2.7945 0 0 0-2.4686 2.7712 2.8105 2.7945 0 0 0 2.8101 2.7945h9.5969a3.593 3.593 0 0 0 3.593-3.593 3.593 3.593 0 0 0-3.593-3.593 3.593 3.593 0 0 0-0.49279 0.03431 4.9903 4.9903 0 0 0-4.4975-2.8289z" color="#000000" fill="#757575" stroke-linecap="round" stroke-linejoin="round" style="-inkscape-stroke:none"/></g></g><g id="g5" transform="matrix(.74997 0 0 .70067 1.7083 5.1923)" fill="#1565C0" stroke-linecap="round" stroke-linejoin="round" stroke-width="2.0015"><rect id="rect3" transform="matrix(.93179 .363 -.32194 .94676 0 0)" x="14.122" y="12.932" width="1.3447" height="7.0827" ry=".66172"/><rect id="rect3-1" transform="matrix(.93179 .363 -.32194 .94676 0 0)" x="10.115" y="14.469" width="1.3447" height="7.0827" ry=".66172"/><rect id="rect3-0" transform="matrix(.93179 .363 -.32194 .94676 0 0)" x="18.129" y="11.396" width="1.3447" height="7.0827" ry=".66172"/><rect id="rect3-9" transform="matrix(.93179 .363 -.32194 .94676 0 0)" x="22.143" y="9.8569" width="1.3447" height="7.0827" ry=".66172"/></g></g></g></svg>
